# Rhino

mtllib chair-1 unit.mtl
usemtl diffuse_0
v -0.40000000596046448 1.25 0.5
v -0.40000000596046448 2 0.5
v 0.40000000596046448 1.25 0.5
v 0.40000000596046448 2 0.5
v 0.40000000596046448 1.25 0.5
v 0.40000000596046448 2 0.5
v 0.40000000596046448 1.25 0.40000000596046448
v 0.40000000596046448 2 0.40000000596046448
v 0.40000000596046448 1.25 0.40000000596046448
v 0.40000000596046448 2 0.40000000596046448
v -0.40000000596046448 1.25 0.40000000596046448
v -0.40000000596046448 2 0.40000000596046448
v -0.40000000596046448 1.25 0.40000000596046448
v -0.40000000596046448 2 0.40000000596046448
v -0.40000000596046448 1.25 0.5
v -0.40000000596046448 2 0.5
v -0.40000000596046448 1.25 0.5
v 0.40000000596046448 1.25 0.5
v 0.40000000596046448 1.25 0.40000000596046448
v -0.40000000596046448 1.25 0.40000000596046448
v -0.40000000596046448 2 0.5
v 0.40000000596046448 2 0.5
v 0.40000000596046448 2 0.40000000596046448
v -0.40000000596046448 2 0.40000000596046448
vt 0 0
vt 0 0.89473605155944824
vt 0.4444444477558136 0
vt 0.4444444477558136 0.89473605155944824
vt 0.4444444477558136 0
vt 0.4444444477558136 0.89473605155944824
vt 0.5 0
vt 0.5 0.89473605155944824
vt 0.5 0
vt 0.5 0.89473605155944824
vt 0.94444441795349121 0
vt 0.94444441795349121 0.89473605155944824
vt 0.94444441795349121 0
vt 0.94444441795349121 0.89473605155944824
vt 1 0
vt 1 0.89473605155944824
vt 0 1
vt 0.4444444477558136 1
vt 0.4444444477558136 0.89473694562911987
vt 0 0.89473694562911987
vt 0.55555558204650879 0.89473694562911987
vt 1 0.89473694562911987
vt 1 1
vt 0.55555558204650879 1
vn 0 0 1
vn 0 0 1
vn 0 0 1
vn 0 0 1
vn 1 0 0
vn 1 0 0
vn 1 0 0
vn 1 0 0
vn 0 0 -1
vn 0 0 -1
vn 0 0 -1
vn 0 0 -1
vn -1 0 0
vn -1 0 0
vn -1 0 0
vn -1 0 0
vn 0 -1 0
vn 0 -1 0
vn 0 -1 0
vn 0 -1 0
vn 0 1 0
vn 0 1 0
vn 0 1 0
vn 0 1 0
f 18/18/18 17/17/17 20/20/20 19/19/19
f 24/24/24 21/21/21 22/22/22 23/23/23
f 1/1/1 3/3/3 4/4/4 2/2/2
f 5/5/5 7/7/7 8/8/8 6/6/6
f 9/9/9 11/11/11 12/12/12 10/10/10
f 13/13/13 15/15/15 16/16/16 14/14/14
usemtl diffuse_0
v 0.40000000596046448 2 0.5
v 0.40000000596046448 0 0.5
v 0.40000000596046448 2 0.40000000596046448
v 0.40000000596046448 0 0.40000000596046448
v 0.40000000596046448 2 0.40000000596046448
v 0.40000000596046448 0 0.40000000596046448
v 0.5 2 0.40000000596046448
v 0.5 0 0.40000000596046448
v 0.5 2 0.40000000596046448
v 0.5 0 0.40000000596046448
v 0.5 2 0.5
v 0.5 0 0.5
v 0.5 2 0.5
v 0.5 0 0.5
v 0.40000000596046448 2 0.5
v 0.40000000596046448 0 0.5
v 0.40000000596046448 2 0.5
v 0.40000000596046448 2 0.40000000596046448
v 0.5 2 0.40000000596046448
v 0.5 2 0.5
v 0.40000000596046448 0 0.5
v 0.40000000596046448 0 0.40000000596046448
v 0.5 0 0.40000000596046448
v 0.5 0 0.5
vt 0 0
vt 0 1
vt 0.20833316445350647 0
vt 0.20833316445350647 1
vt 0.20833316445350647 0
vt 0.20833316445350647 1
vt 0.41666632890701294 0
vt 0.41666632890701294 1
vt 0.41666632890701294 0
vt 0.41666632890701294 1
vt 0.62499946355819702 0
vt 0.62499946355819702 1
vt 0.62499946355819702 0
vt 0.62499946355819702 1
vt 0.83333265781402588 0
vt 0.83333265781402588 1
vt 1 0.05000000074505806
vt 1 0
vt 0.83333349227905273 0
vt 0.83333349227905273 0.05000000074505806
vt 1 0.94999998807907104
vt 1 1
vt 0.83333349227905273 1
vt 0.83333349227905273 0.94999998807907104
vn -1 0 0
vn -1 0 0
vn -1 0 0
vn -1 0 0
vn 0 0 -1
vn 0 0 -1
vn 0 0 -1
vn 0 0 -1
vn 1 0 0
vn 1 0 0
vn 1 0 0
vn 1 0 0
vn 0 0 1
vn 0 0 1
vn 0 0 1
vn 0 0 1
vn 0 1 0
vn 0 1 0
vn 0 1 0
vn 0 1 0
vn 0 -1 0
vn 0 -1 0
vn 0 -1 0
vn 0 -1 0
f 41/41/41 44/44/44 43/43/43 42/42/42
f 47/47/47 48/48/48 45/45/45 46/46/46
f 25/25/25 27/27/27 28/28/28 26/26/26
f 29/29/29 31/31/31 32/32/32 30/30/30
f 33/33/33 35/35/35 36/36/36 34/34/34
f 37/37/37 39/39/39 40/40/40 38/38/38
usemtl diffuse_0
v -0.5 2 0.5
v -0.5 0 0.5
v -0.5 2 0.40000000596046448
v -0.5 0 0.40000000596046448
v -0.5 2 0.40000000596046448
v -0.5 0 0.40000000596046448
v -0.40000000596046448 2 0.40000000596046448
v -0.40000000596046448 0 0.40000000596046448
v -0.40000000596046448 2 0.40000000596046448
v -0.40000000596046448 0 0.40000000596046448
v -0.40000000596046448 2 0.5
v -0.40000000596046448 0 0.5
v -0.40000000596046448 2 0.5
v -0.40000000596046448 0 0.5
v -0.5 2 0.5
v -0.5 0 0.5
v -0.5 2 0.5
v -0.5 2 0.40000000596046448
v -0.40000000596046448 2 0.40000000596046448
v -0.40000000596046448 2 0.5
v -0.5 0 0.5
v -0.5 0 0.40000000596046448
v -0.40000000596046448 0 0.40000000596046448
v -0.40000000596046448 0 0.5
vt 0 0
vt 0 1
vt 0.20833316445350647 0
vt 0.20833316445350647 1
vt 0.20833316445350647 0
vt 0.20833316445350647 1
vt 0.41666632890701294 0
vt 0.41666632890701294 1
vt 0.41666632890701294 0
vt 0.41666632890701294 1
vt 0.62499946355819702 0
vt 0.62499946355819702 1
vt 0.62499946355819702 0
vt 0.62499946355819702 1
vt 0.83333265781402588 0
vt 0.83333265781402588 1
vt 1 0.05000000074505806
vt 1 0
vt 0.83333349227905273 0
vt 0.83333349227905273 0.05000000074505806
vt 1 0.94999998807907104
vt 1 1
vt 0.83333349227905273 1
vt 0.83333349227905273 0.94999998807907104
vn -1 0 0
vn -1 0 0
vn -1 0 0
vn -1 0 0
vn 0 0 -1
vn 0 0 -1
vn 0 0 -1
vn 0 0 -1
vn 1 0 0
vn 1 0 0
vn 1 0 0
vn 1 0 0
vn 0 0 1
vn 0 0 1
vn 0 0 1
vn 0 0 1
vn 0 1 0
vn 0 1 0
vn 0 1 0
vn 0 1 0
vn 0 -1 0
vn 0 -1 0
vn 0 -1 0
vn 0 -1 0
f 65/65/65 68/68/68 67/67/67 66/66/66
f 71/71/71 72/72/72 69/69/69 70/70/70
f 49/49/49 51/51/51 52/52/52 50/50/50
f 53/53/53 55/55/55 56/56/56 54/54/54
f 57/57/57 59/59/59 60/60/60 58/58/58
f 61/61/61 63/63/63 64/64/64 62/62/62
usemtl diffuse_0
v -0.5 1 0.5
v -0.5 0.89999997615814209 0.5
v -0.5 1 -0.5
v -0.5 0.89999997615814209 -0.5
v -0.5 1 -0.5
v -0.5 0.89999997615814209 -0.5
v 0.5 1 -0.5
v 0.5 0.89999997615814209 -0.5
v 0.5 1 -0.5
v 0.5 0.89999997615814209 -0.5
v 0.5 1 0.5
v 0.5 0.89999997615814209 0.5
v 0.5 1 0.5
v 0.5 0.89999997615814209 0.5
v -0.5 1 0.5
v -0.5 0.89999997615814209 0.5
v -0.5 1 0.5
v -0.5 1 -0.5
v 0.5 1 -0.5
v 0.5 1 0.5
v -0.5 0.89999997615814209 0.5
v -0.5 0.89999997615814209 -0.5
v 0.5 0.89999997615814209 -0.5
v 0.5 0.89999997615814209 0.5
vt 0 0
vt 0 0.52380925416946411
vt 0.25 0
vt 0.25 0.52380925416946411
vt 0.25 0
vt 0.25 0.52380925416946411
vt 0.5 0
vt 0.5 0.52380925416946411
vt 0.5 0
vt 0.5 0.52380925416946411
vt 0.75 0
vt 0.75 0.52380925416946411
vt 0.75 0
vt 0.75 0.52380925416946411
vt 1 0
vt 1 0.52380925416946411
vt 0.25 1
vt 0.25 0.52380979061126709
vt 0 0.52380979061126709
vt 0 1
vt 1 0.52380979061126709
vt 1 1
vt 0.75 1
vt 0.75 0.52380979061126709
vn -1 0 0
vn -1 0 0
vn -1 0 0
vn -1 0 0
vn 0 0 -1
vn 0 0 -1
vn 0 0 -1
vn 0 0 -1
vn 1 0 0
vn 1 0 0
vn 1 0 0
vn 1 0 0
vn 0 0 1
vn 0 0 1
vn 0 0 1
vn 0 0 1
vn 0 1 0
vn 0 1 0
vn 0 1 0
vn 0 1 0
vn 0 -1 0
vn 0 -1 0
vn 0 -1 0
vn 0 -1 0
f 89/89/89 92/92/92 91/91/91 90/90/90
f 95/95/95 96/96/96 93/93/93 94/94/94
f 73/73/73 75/75/75 76/76/76 74/74/74
f 77/77/77 79/79/79 80/80/80 78/78/78
f 81/81/81 83/83/83 84/84/84 82/82/82
f 85/85/85 87/87/87 88/88/88 86/86/86
usemtl diffuse_0
v -0.5 0 -0.40000000596046448
v -0.5 0.89999997615814209 -0.40000000596046448
v -0.40000000596046448 0 -0.40000000596046448
v -0.40000000596046448 0.89999997615814209 -0.40000000596046448
v -0.40000000596046448 0 -0.40000000596046448
v -0.40000000596046448 0.89999997615814209 -0.40000000596046448
v -0.40000000596046448 0 -0.5
v -0.40000000596046448 0.89999997615814209 -0.5
v -0.40000000596046448 0 -0.5
v -0.40000000596046448 0.89999997615814209 -0.5
v -0.5 0 -0.5
v -0.5 0.89999997615814209 -0.5
v -0.5 0 -0.5
v -0.5 0.89999997615814209 -0.5
v -0.5 0 -0.40000000596046448
v -0.5 0.89999997615814209 -0.40000000596046448
v -0.5 0 -0.40000000596046448
v -0.40000000596046448 0 -0.40000000596046448
v -0.40000000596046448 0 -0.5
v -0.5 0 -0.5
v -0.5 0.89999997615814209 -0.40000000596046448
v -0.40000000596046448 0.89999997615814209 -0.40000000596046448
v -0.40000000596046448 0.89999997615814209 -0.5
v -0.5 0.89999997615814209 -0.5
vt 0 0
vt 0 1
vt 0.20833316445350647 0
vt 0.20833316445350647 1
vt 0.20833316445350647 0
vt 0.20833316445350647 1
vt 0.41666632890701294 0
vt 0.41666632890701294 1
vt 0.41666632890701294 0
vt 0.41666632890701294 1
vt 0.62499946355819702 0
vt 0.62499946355819702 1
vt 0.62499946355819702 0
vt 0.62499946355819702 1
vt 0.83333265781402588 0
vt 0.83333265781402588 1
vt 1 0.1111111119389534
vt 1 0
vt 0.83333349227905273 0
vt 0.83333349227905273 0.1111111119389534
vt 1 0.8888888955116272
vt 1 1
vt 0.83333349227905273 1
vt 0.83333349227905273 0.8888888955116272
vn 0 0 1
vn 0 0 1
vn 0 0 1
vn 0 0 1
vn 1 0 0
vn 1 0 0
vn 1 0 0
vn 1 0 0
vn 0 0 -1
vn 0 0 -1
vn 0 0 -1
vn 0 0 -1
vn -1 0 0
vn -1 0 0
vn -1 0 0
vn -1 0 0
vn 0 -1 0
vn 0 -1 0
vn 0 -1 0
vn 0 -1 0
vn 0 1 0
vn 0 1 0
vn 0 1 0
vn 0 1 0
f 114/114/114 113/113/113 116/116/116 115/115/115
f 120/120/120 117/117/117 118/118/118 119/119/119
f 97/97/97 99/99/99 100/100/100 98/98/98
f 101/101/101 103/103/103 104/104/104 102/102/102
f 105/105/105 107/107/107 108/108/108 106/106/106
f 109/109/109 111/111/111 112/112/112 110/110/110
usemtl diffuse_0
v 0.40000000596046448 0 -0.40000000596046448
v 0.40000000596046448 0.89999997615814209 -0.40000000596046448
v 0.5 0 -0.40000000596046448
v 0.5 0.89999997615814209 -0.40000000596046448
v 0.5 0 -0.40000000596046448
v 0.5 0.89999997615814209 -0.40000000596046448
v 0.5 0 -0.5
v 0.5 0.89999997615814209 -0.5
v 0.5 0 -0.5
v 0.5 0.89999997615814209 -0.5
v 0.40000000596046448 0 -0.5
v 0.40000000596046448 0.89999997615814209 -0.5
v 0.40000000596046448 0 -0.5
v 0.40000000596046448 0.89999997615814209 -0.5
v 0.40000000596046448 0 -0.40000000596046448
v 0.40000000596046448 0.89999997615814209 -0.40000000596046448
v 0.40000000596046448 0 -0.40000000596046448
v 0.5 0 -0.40000000596046448
v 0.5 0 -0.5
v 0.40000000596046448 0 -0.5
v 0.40000000596046448 0.89999997615814209 -0.40000000596046448
v 0.5 0.89999997615814209 -0.40000000596046448
v 0.5 0.89999997615814209 -0.5
v 0.40000000596046448 0.89999997615814209 -0.5
vt 0 0
vt 0 1
vt 0.20833316445350647 0
vt 0.20833316445350647 1
vt 0.20833316445350647 0
vt 0.20833316445350647 1
vt 0.41666632890701294 0
vt 0.41666632890701294 1
vt 0.41666632890701294 0
vt 0.41666632890701294 1
vt 0.62499946355819702 0
vt 0.62499946355819702 1
vt 0.62499946355819702 0
vt 0.62499946355819702 1
vt 0.83333265781402588 0
vt 0.83333265781402588 1
vt 0.83333349227905273 0.1111111119389534
vt 1 0.1111111119389534
vt 1 0
vt 0.83333349227905273 0
vt 0.83333349227905273 0.8888888955116272
vt 1 0.8888888955116272
vt 1 1
vt 0.83333349227905273 1
vn 0 0 1
vn 0 0 1
vn 0 0 1
vn 0 0 1
vn 1 0 0
vn 1 0 0
vn 1 0 0
vn 1 0 0
vn 0 0 -1
vn 0 0 -1
vn 0 0 -1
vn 0 0 -1
vn -1 0 0
vn -1 0 0
vn -1 0 0
vn -1 0 0
vn 0 -1 0
vn 0 -1 0
vn 0 -1 0
vn 0 -1 0
vn 0 1 0
vn 0 1 0
vn 0 1 0
vn 0 1 0
f 138/138/138 137/137/137 140/140/140 139/139/139
f 144/144/144 141/141/141 142/142/142 143/143/143
f 121/121/121 123/123/123 124/124/124 122/122/122
f 125/125/125 127/127/127 128/128/128 126/126/126
f 129/129/129 131/131/131 132/132/132 130/130/130
f 133/133/133 135/135/135 136/136/136 134/134/134
